<?xml version="1.0" standalone="no"?>
<!DOCTYPE svg PUBLIC "-//W3C//DTD SVG 20010904//EN"
 "http://www.w3.org/TR/2001/REC-SVG-20010904/DTD/svg10.dtd">
<svg version="1.0" xmlns="http://www.w3.org/2000/svg"
 width="300.000000pt" height="70.000000pt" viewBox="0 0 300.000000 70.000000"
 preserveAspectRatio="xMidYMid meet">

<g transform="translate(0.000000,70.000000) scale(0.100000,-0.100000)"
fill="#000000" stroke="none">
<path d="M420 689 c-62 -7 -79 -13 -100 -36 -22 -24 -22 -25 -2 -8 21 18 43
20 203 24 l180 3 -3 -93 -3 -94 -222 0 c-208 0 -222 1 -217 18 4 12 0 17 -15
17 -22 0 -29 -16 -9 -22 22 -8 -1 -36 -34 -43 -163 -31 -178 -36 -184 -61 -4
-14 -2 -52 3 -84 8 -48 7 -62 -5 -74 -20 -20 -8 -66 17 -66 16 0 22 -11 31
-54 14 -67 35 -88 87 -84 33 3 40 8 56 41 l19 37 82 0 c46 0 116 -3 157 -6
l74 -7 15 -46 c14 -44 17 -46 57 -49 48 -4 66 15 78 79 l7 37 75 12 c41 6 76
10 77 8 1 -1 7 -15 14 -30 9 -22 18 -28 41 -28 34 0 51 18 30 31 -20 12 -20
166 1 179 18 11 30 4 29 -18 0 -14 -2 -14 -10 3 -7 16 -8 12 -4 -14 3 -18 5
-45 5 -59 l0 -25 24 24 c20 21 23 34 24 109 1 47 -2 90 -6 96 -4 6 -20 18 -37
27 -25 13 -34 29 -60 108 -25 78 -35 96 -60 111 -78 45 -229 58 -415 37z m346
-45 c18 -5 24 -17 33 -80 6 -41 11 -79 11 -84 0 -6 -20 -10 -44 -10 l-44 0 -1
90 c-2 95 -1 96 45 84z m74 -24 c16 -9 60 -119 60 -151 0 -11 -50 -12 -66 -1
-6 4 -14 27 -18 52 -3 25 -9 60 -12 78 -7 34 3 40 36 22z m0 -200 c0 -5 -4
-10 -10 -10 -5 0 -10 5 -10 10 0 6 5 10 10 10 6 0 10 -4 10 -10z m-690 -70 l0
-60 -60 0 -60 0 0 45 0 45 55 0 c42 0 55 3 55 15 0 8 2 15 5 15 3 0 5 -27 5
-60z m230 -10 l0 -70 -117 2 -118 2 113 3 112 4 0 59 0 59 -42 4 -43 4 48 1
47 2 0 -70z m448 43 c-21 -2 -55 -2 -75 0 -21 2 -4 4 37 4 41 0 58 -2 38 -4z
m-294 -25 c3 -13 6 -35 6 -50 0 -28 0 -28 -70 -28 l-69 0 -7 35 c-10 58 -3 65
70 65 58 0 64 -2 70 -22z m165 -137 l-1 -66 -9 57 c-9 65 -24 98 -42 98 -8 0
-6 4 3 10 29 19 50 -24 49 -99z m-29 23 c14 -35 12 -153 -3 -188 -11 -26 -14
-27 -26 -12 -29 35 -21 226 10 226 5 0 14 -12 19 -26z m-232 -14 c39 0 72 -4
72 -10 0 -5 -34 -7 -85 -3 l-85 6 0 -32 0 -31 -95 0 -95 0 0 30 c0 30 0 30
-59 30 -35 0 -63 5 -67 12 -5 8 36 10 167 5 96 -4 207 -7 247 -7z"/>
<path d="M730 525 c0 -10 7 -15 18 -13 21 4 19 22 -2 26 -10 2 -16 -3 -16 -13z"/>
<path d="M272 565 c-17 -37 -14 -45 4 -12 9 16 14 31 11 33 -2 2 -9 -7 -15
-21z"/>
<path d="M1050 508 c0 -13 11 -95 25 -183 13 -88 25 -163 25 -167 0 -5 34 -8
75 -8 l74 0 5 33 c8 42 46 329 46 339 0 4 -22 8 -49 8 -59 0 -57 4 -67 -140
-8 -101 -8 -103 -15 -50 -4 30 -10 85 -14 123 l-7 67 -49 0 c-44 0 -49 -2 -49
-22z"/>
<path d="M1730 340 l0 -190 50 0 50 0 0 80 0 80 30 0 c28 0 30 3 30 35 0 32
-2 35 -30 35 -28 0 -30 3 -30 34 0 32 3 35 33 38 29 3 32 6 35 41 l3 37 -85 0
-86 0 0 -190z"/>
<path d="M1370 457 c-37 -13 -60 -46 -60 -89 0 -26 3 -28 45 -28 45 0 45 0 45
36 0 24 4 34 13 32 6 -3 12 -18 12 -34 0 -24 -7 -32 -40 -47 -60 -28 -75 -46
-75 -86 0 -57 10 -79 40 -89 20 -8 35 -6 54 3 14 8 26 10 26 4 0 -5 20 -9 45
-9 l45 0 0 131 c0 72 -5 139 -10 149 -6 11 -27 24 -48 30 -45 12 -48 12 -92
-3z m60 -212 c0 -33 -4 -45 -15 -45 -16 0 -21 43 -9 74 12 31 24 16 24 -29z"/>
<path d="M1984 463 c-45 -9 -64 -44 -70 -129 -7 -92 7 -158 37 -175 24 -13 94
-15 127 -5 37 12 52 56 52 150 0 90 -10 125 -39 143 -22 14 -78 22 -107 16z
m51 -158 c0 -70 -4 -100 -12 -102 -10 -4 -13 21 -13 102 0 81 3 106 13 103 8
-3 12 -33 12 -103z"/>
<path d="M2708 456 c-16 -8 -28 -11 -28 -5 0 5 -22 9 -50 9 l-50 0 0 -155 0
-155 50 0 50 0 0 131 c0 100 3 130 13 127 8 -3 13 -41 15 -131 l3 -127 44 0
45 0 0 130 c0 109 2 130 15 130 13 0 15 -21 15 -130 l0 -130 45 0 45 0 0 134
c0 74 -3 142 -6 151 -11 28 -52 37 -86 20 -26 -13 -33 -13 -59 0 -34 18 -28
18 -61 1z"/>
<path d="M1550 430 c0 -27 3 -30 30 -30 17 0 30 -4 30 -8 0 -4 -16 -47 -35
-95 -19 -48 -35 -100 -35 -117 l0 -30 80 0 80 0 0 30 c0 27 -3 30 -30 30 -16
0 -30 3 -30 8 0 4 14 43 30 85 17 43 30 96 30 118 l0 39 -75 0 -75 0 0 -30z"/>
<path d="M2160 305 l0 -155 50 0 50 0 0 95 c0 92 1 96 25 107 22 10 25 18 25
60 0 52 -11 60 -42 31 -18 -16 -18 -16 -12 0 5 15 -1 17 -45 17 l-51 0 0 -155z"/>
<path d="M2330 329 c0 -73 5 -139 11 -150 16 -31 56 -42 90 -25 16 8 27 10 24
5 -4 -5 16 -9 44 -9 l51 0 0 155 0 155 -45 0 -45 0 0 -114 c0 -63 -3 -121 -6
-130 -16 -42 -24 -5 -24 114 l0 130 -50 0 -50 0 0 -131z"/>
<path d="M941 134 c0 -11 3 -14 6 -6 3 7 2 16 -1 19 -3 4 -6 -2 -5 -13z"/>
</g>
</svg>
