<?xml version="1.0" encoding="UTF-8" standalone="no"?>
<svg
   xmlns:dc="http://purl.org/dc/elements/1.1/"
   xmlns:cc="http://creativecommons.org/ns#"
   xmlns:rdf="http://www.w3.org/1999/02/22-rdf-syntax-ns#"
   xmlns:svg="http://www.w3.org/2000/svg"
   xmlns="http://www.w3.org/2000/svg"
   xmlns:sodipodi="http://sodipodi.sourceforge.net/DTD/sodipodi-0.dtd"
   xmlns:inkscape="http://www.inkscape.org/namespaces/inkscape"
   inkscape:export-ydpi="96"
   inkscape:export-xdpi="96"
   inkscape:export-filename="C:\Users\Vasbe\Desktop\sites\react-first-app\src\icons\vaz.png"
   version="1.0"
   width="300"
   height="70"
   viewBox="0 0 225 52.500002"
   preserveAspectRatio="xMidYMid meet"
   id="svg30"
   sodipodi:docname="vaz.svg"
   inkscape:version="1.0 (4035a4fb49, 2020-05-01)">
  <metadata
     id="metadata36">
    <rdf:RDF>
      <cc:Work
         rdf:about="">
        <dc:format>image/svg+xml</dc:format>
        <dc:type
           rdf:resource="http://purl.org/dc/dcmitype/StillImage" />
        <dc:title></dc:title>
      </cc:Work>
    </rdf:RDF>
  </metadata>
  <defs
     id="defs34" />
  <sodipodi:namedview
     inkscape:document-rotation="0"
     pagecolor="#ffffff"
     bordercolor="#666666"
     borderopacity="1"
     objecttolerance="10"
     gridtolerance="10"
     guidetolerance="10"
     inkscape:pageopacity="0"
     inkscape:pageshadow="2"
     inkscape:window-width="1920"
     inkscape:window-height="1017"
     id="namedview32"
     showgrid="false"
     units="px"
     inkscape:zoom="2.2539029"
     inkscape:cx="80.842865"
     inkscape:cy="38.51965"
     inkscape:window-x="-8"
     inkscape:window-y="90"
     inkscape:window-maximized="1"
     inkscape:current-layer="svg30" />
  <g
     transform="matrix(0.00937805,0,0,-0.01289301,0.23529412,77.902062)"
     fill="#000000"
     stroke="none"
     id="g28">
    <path
       d="m 4225,6034 c -216,-8 -682,-36 -910,-55 -428,-36 -595,-68 -735,-139 -106,-54 -139,-100 -414,-575 -239,-412 -257,-440 -283,-440 -23,0 -28,5 -34,33 -6,30 -5,32 20,32 59,0 71,9 71,55 v 42 l -82,6 c -117,9 -128,5 -128,-48 0,-46 10,-55 60,-55 24,0 29,-5 39,-45 8,-33 16,-45 29,-45 32,0 32,-11 2,-71 -32,-63 -61,-85 -126,-94 -22,-3 -230,-28 -464,-56 C 847,4530 361,4454 265,4423 143,4384 91,4343 68,4268 c -16,-55 15,-417 53,-605 29,-145 54,-204 99,-236 22,-15 21,-15 -7,-20 -15,-3 -52,-9 -80,-12 C 35,3383 0,3331 0,3200 c 0,-84 24,-176 55,-210 12,-13 45,-20 138,-28 67,-6 136,-8 153,-5 l 31,5 11,-65 c 5,-36 19,-78 30,-94 13,-19 23,-59 31,-123 18,-161 79,-316 156,-394 61,-63 156,-122 216,-135 61,-13 342,-14 462,-1 133,14 181,40 262,142 60,76 153,239 167,296 l 6,23 254,-6 c 139,-3 602,-10 1028,-16 426,-6 887,-14 1025,-18 l 249,-6 33,-124 c 64,-245 92,-303 195,-396 80,-72 117,-80 363,-80 258,0 332,20 420,112 83,86 148,242 195,463 l 22,105 617,78 c 594,75 651,82 651,73 0,-30 45,-206 60,-235 24,-47 70,-85 129,-106 52,-18 353,-21 413,-4 106,29 180,182 208,429 l 12,105 78,75 c 43,41 90,94 104,118 30,49 66,58 66,17 0,-14 2,-25 5,-25 20,0 88,45 113,76 28,34 30,42 37,161 4,79 3,129 -3,135 -5,5 -28,12 -51,15 -46,6 -53,24 -22,57 35,39 42,87 48,321 7,280 -2,348 -54,405 -56,63 -149,104 -345,152 l -176,43 -187,440 c -252,590 -262,611 -328,671 -29,27 -80,64 -113,81 -169,90 -821,247 -1199,289 -125,14 -1075,27 -1340,18 z m 1061,-153 c 169,-7 185,-9 237,-34 94,-47 92,-30 78,-511 -7,-226 -15,-435 -19,-465 -7,-53 -8,-56 -57,-80 -66,-35 -142,-37 -447,-17 -698,47 -898,55 -1493,60 -473,5 -556,3 -915,-19 -217,-14 -452,-32 -521,-40 -179,-21 -189,-21 -189,10 0,33 11,55 144,270 106,174 231,396 303,540 73,146 151,194 353,219 158,20 507,39 1205,66 258,9 1098,10 1321,1 z m 747,-155 c 126,-13 231,-26 234,-29 6,-7 202,-962 203,-989 0,-16 -13,-18 -133,-18 -74,0 -242,3 -375,7 l -242,6 v 48 c 0,27 5,51 13,56 6,4 50,19 97,33 l 85,25 3,38 3,38 77,-2 c 72,-2 78,-1 89,22 16,31 17,101 1,117 -15,15 -255,17 -278,2 -10,-6 -15,-27 -15,-67 v -58 l 53,-9 c 39,-7 51,-13 47,-24 -3,-7 -5,-19 -5,-26 0,-14 -156,-53 -167,-42 -10,9 16,813 27,843 10,26 36,53 49,53 3,0 109,-11 234,-24 z m 527,-105 c 206,-56 231,-66 268,-104 23,-23 79,-144 212,-456 99,-233 179,-425 178,-426 -2,-1 -133,8 -293,21 -159,13 -306,23 -325,23 l -35,1 -99,473 c -55,259 -102,483 -104,496 -6,29 -18,30 198,-28 z M 3485,4576 c -126,-46 -202,-79 -337,-147 -115,-58 -118,-58 -129,-38 -6,12 -7,25 -2,29 14,14 273,117 363,144 175,53 235,60 105,12 z m -2146,-40 c -2,-1 -55,-26 -118,-55 -63,-28 -130,-63 -148,-77 l -33,-25 v 25 c 0,17 10,31 33,45 48,30 293,110 266,87 z m 5329,-110 c 17,-90 19,-86 -43,-86 h -54 l -17,58 c -8,31 -18,65 -20,75 -5,15 3,17 59,17 h 64 z m 662,-16 c 4,-14 10,-42 14,-62 l 7,-38 h -50 -50 l -11,56 c -14,66 -7,76 49,72 27,-2 36,-8 41,-28 z m -4354,-42 c 13,-9 19,-69 39,-408 20,-332 20,-372 -4,-401 l -19,-24 -914,3 c -698,3 -916,7 -926,16 -9,9 -17,117 -29,388 -18,398 -17,420 26,436 26,9 1812,-1 1827,-10 z m 4604,-148 c -57,-19 -2696,-60 -2780,-43 -31,6 179,14 700,26 410,10 779,19 820,21 209,6 1282,3 1260,-4 z m -6504,-33 c 11,-11 27,-205 28,-350 1,-146 -1,-160 -18,-173 -23,-16 -241,-19 -629,-7 l -227,6 -10,36 c -11,44 -30,277 -30,383 0,84 -3,80 74,94 97,17 796,27 812,11 z m 3143,-36 c 11,-11 22,-35 26,-53 13,-79 43,-437 38,-456 -3,-12 -15,-24 -27,-27 -11,-2 -263,-7 -558,-10 l -538,-6 -9,23 c -6,13 -17,132 -26,266 -13,188 -14,246 -5,257 14,17 88,20 673,23 391,2 408,1 426,-17 z m 1169,-300 c 20,-11 49,-32 64,-48 51,-53 101,-196 128,-366 19,-118 8,-355 -24,-489 -37,-161 -42,-160 -49,8 -13,351 -88,614 -214,752 -53,59 -85,71 -188,72 h -60 l 35,23 c 94,63 235,85 308,48 z m 2129,-100 c 52,-24 98,-86 112,-152 12,-57 14,-194 2,-254 -7,-38 -8,-36 -15,35 -4,41 -15,104 -23,140 -31,125 -65,179 -129,206 -35,15 -43,29 -21,37 21,9 31,7 74,-12 z m -63,-114 c 30,-30 60,-112 83,-224 27,-133 24,-452 -5,-587 -51,-239 -140,-295 -203,-127 -45,121 -54,194 -54,431 0,239 13,342 56,440 39,88 80,110 123,67 z M 5241,3537 c 203,-136 254,-897 84,-1244 -87,-177 -201,-177 -288,-1 -70,142 -101,318 -101,568 0,211 17,331 65,475 64,191 149,263 240,202 z m 1916,-149 c -12,-3 -343,-43 -735,-89 -544,-63 -715,-80 -724,-71 -6,6 -9,14 -6,17 4,4 1205,143 1443,167 36,4 53,-14 22,-24 z m -5877,-38 c 294,-5 778,-14 1075,-20 297,-6 803,-15 1124,-20 322,-6 586,-12 587,-13 2,-2 6,-22 10,-45 l 7,-43 -39,5 c -22,3 -282,8 -579,11 -297,3 -767,10 -1045,15 -278,5 -804,14 -1170,20 -366,5 -765,13 -887,16 l -223,6 v 37 c 0,21 3,41 8,45 4,5 140,5 302,2 162,-4 536,-11 830,-16 z m 1223,-126 207,-7 -2,-171 -3,-171 -380,2 c -209,1 -557,5 -772,9 l -393,6 v 168 c 0,91 3,170 8,174 7,8 962,1 1335,-10 z"
       id="path24" />
    <path
       d="m 1164,4305 c -15,-22 -16,-48 -9,-223 10,-300 23,-472 36,-488 10,-12 147,-14 875,-14 h 864 l 21,21 c 21,21 22,27 15,168 -12,257 -36,535 -46,545 -8,8 -285,12 -875,14 l -864,2 z"
       id="path26" />
  </g>
  <text
     xml:space="preserve"
     style="font-style:normal;font-weight:normal;font-size:36px;line-height:1.25;font-family:sans-serif;fill:#000000;fill-opacity:1;stroke:none;stroke-width:0.75"
     x="78.530449"
     y="41.261757"
     id="text48"><tspan
       sodipodi:role="line"
       id="tspan46"
       x="78.530449"
       y="41.261757"
       style="font-style:normal;font-variant:normal;font-weight:normal;font-stretch:condensed;font-size:36px;font-family:Impact;-inkscape-font-specification:'Impact Condensed';stroke-width:0.75">VazForum</tspan></text>
</svg>
